PathFileType	4	(X/Y/Z)	s01c0402.trc
DataRate	CameraRate	NumFrames	NumMarkers	Units	OrigDataRate	OrigDataStartFrame	OrigNumFrames
200	200	6	48	mm	200	750	2000
Frame#	Time	racr			lacr			c7			jug			rlel			rdr			llel			ldr			s2			lic			ric			lasi			rasi			rpsi			lpsi			rgt			lgt			rth1			rth2			rth3			rth4			rlfc			rsh1			rsh2			rsh3			rsh4			rlmal			rmmal			rcal			rtoe			rmt5			lth1			lth2			lth4			lth3			llfc			lsh1			lsh2			lsh3			lsh4			llmal			lmmal			lcal			ltoe			lmt5			SBIKE			LBIKE			RBIKE			
		X1	Y1	Z1	X2	Y2	Z2	X3	Y3	Z3	X4	Y4	Z4	X5	Y5	Z5	X6	Y6	Z6	X7	Y7	Z7	X8	Y8	Z8	X9	Y9	Z9	X10	Y10	Z10	X11	Y11	Z11	X12	Y12	Z12	X13	Y13	Z13	X14	Y14	Z14	X15	Y15	Z15	X16	Y16	Z16	X17	Y17	Z17	X18	Y18	Z18	X19	Y19	Z19	X20	Y20	Z20	X21	Y21	Z21	X22	Y22	Z22	X23	Y23	Z23	X24	Y24	Z24	X25	Y25	Z25	X26	Y26	Z26	X27	Y27	Z27	X28	Y28	Z28	X29	Y29	Z29	X30	Y30	Z30	X31	Y31	Z31	X32	Y32	Z32	X33	Y33	Z33	X34	Y34	Z34	X35	Y35	Z35	X36	Y36	Z36	X37	Y37	Z37	X38	Y38	Z38	X39	Y39	Z39	X40	Y40	Z40	X41	Y41	Z41	X42	Y42	Z42	X43	Y43	Z43	X44	Y44	Z44	X45	Y45	Z45	X46	Y46	Z46	X47	Y47	Z47	X48	Y48	Z48	
750	3.7500	703.277710	1272.111816	-23.373844	754.725830	1253.997559	-405.971680	728.382996	1378.914673	-212.488647	706.661438	1208.109375	-210.775665	525.250427	1037.704712	54.909645	692.621521	891.289917	-43.481987	564.481384	1067.465698	-542.720886	703.231201	891.593079	-457.655792	189.082413	1211.623291	-238.927673	359.479431	1207.188477	-412.553619	340.303864	1195.329102	-81.412170	353.301147	1150.920410	-388.448578	369.087372	1149.635620	-113.727997	222.895309	1245.479614	-189.215668	220.087753	1252.294556	-295.158630	289.535339	1084.030151	-58.424751	291.058411	1070.174561	-434.682739	363.504120	971.777893	-44.424564	415.525787	907.523621	-50.761784	467.320984	834.079285	-63.806175	460.940887	939.905151	-64.557922	507.948730	729.486145	-87.518753	447.533875	625.369080	-56.111477	413.629181	547.701172	-61.673119	369.846680	471.045807	-74.128761	455.346436	530.032776	-101.932594	298.580353	364.777527	-92.776604	342.873108	372.942505	-173.392242	246.731415	346.699768	-148.407928	503.327423	259.909485	-128.721161	393.402618	254.985931	-61.273163	343.251465	957.906677	-445.895081	404.911041	902.013428	-444.091217	443.047058	930.112915	-430.637146	456.286530	826.786987	-431.574036	486.061401	715.862305	-417.081970	378.723541	687.225220	-449.073059	305.118042	642.390869	-442.077850	229.434036	602.063538	-429.653503	334.881195	597.604675	-411.724304	121.972290	544.728577	-413.115784	144.235596	525.435791	-334.231628	69.282074	564.148438	-369.064636	189.917175	313.338745	-372.323120	120.382492	393.816071	-438.831573	-223.314224	893.542480	-250.078339	-12.440486	85.204788	-455.750977	-21.505699	80.872452	-55.626945	
751	3.7550	703.487000	1272.214722	-24.705332	753.635864	1255.931396	-407.662354	727.340637	1380.164429	-213.568176	706.697021	1209.391113	-212.282669	525.359375	1037.858398	54.346851	692.742676	891.244568	-43.358929	564.956177	1067.500366	-542.933594	703.368408	891.467896	-457.934631	188.426987	1209.082520	-237.701950	358.194336	1206.759155	-411.629089	340.588806	1193.600830	-80.156708	352.745850	1150.702393	-387.489471	369.239960	1147.680664	-112.728127	222.381470	1242.964233	-187.939590	219.036270	1250.320923	-293.619263	288.869354	1081.301636	-58.147213	291.972076	1070.038208	-434.580139	361.287598	967.485535	-44.559731	411.997162	902.171143	-50.808884	462.295593	827.973145	-64.002098	456.833801	933.336670	-63.053879	501.705933	722.421997	-87.913719	442.562195	617.463379	-56.292564	409.263245	539.560059	-61.888035	366.117218	462.549713	-74.228798	451.053040	522.228088	-102.083107	295.169098	355.961243	-93.202263	340.763855	364.487030	-173.044357	243.615540	338.758881	-148.609436	499.322479	249.015793	-129.036270	389.426300	245.614059	-61.443932	346.755188	959.536743	-446.561005	408.952972	905.105042	-445.357483	447.443146	934.799072	-431.430359	464.059692	831.991882	-433.311737	493.520111	721.039307	-419.250183	385.438141	693.486328	-450.529755	311.242432	649.741821	-443.168213	235.248978	610.310852	-430.318176	340.884796	604.261780	-413.157867	127.437737	553.887207	-413.301178	149.537949	534.468689	-334.738342	74.628212	573.895081	-369.254822	194.212357	322.378754	-372.169922	125.087646	403.110718	-438.770020	-223.324860	893.511658	-250.187744	-12.433034	85.171143	-455.756012	-21.510521	80.863892	-55.653778	
752	3.7600	703.660461	1272.513306	-26.154713	752.498230	1257.957764	-409.422119	726.281372	1381.461304	-214.803177	706.748352	1210.621826	-213.886185	525.644592	1038.262207	53.815487	692.780029	891.250488	-43.262310	565.287109	1067.377075	-543.339050	703.454773	891.377747	-458.281921	187.854858	1206.646851	-236.338364	356.794983	1206.431274	-410.795227	341.029083	1191.838135	-79.085808	352.152527	1150.544312	-386.658295	369.430969	1145.753174	-111.777603	222.019302	1240.576050	-186.582550	218.003708	1248.438110	-291.931519	288.246490	1078.560059	-57.949326	292.387695	1070.065186	-434.227020	358.908997	963.362061	-44.902847	408.370758	896.943909	-50.851658	457.064362	821.835022	-64.277504	454.391327	927.762756	-63.668873	495.276001	715.214172	-88.726372	437.046082	609.668213	-56.386028	404.385223	531.432678	-62.169266	362.117157	453.985291	-74.498657	446.158966	514.835510	-102.673218	291.248749	347.609467	-93.665489	338.173431	356.273315	-172.725647	240.079849	331.191895	-148.874603	494.808563	238.346069	-129.354858	384.712067	236.190353	-61.731895	350.165771	961.487305	-446.985779	412.889801	908.436340	-446.668091	451.692505	939.717346	-432.287476	471.158051	838.402222	-435.414703	500.897919	726.511536	-421.415649	392.474762	699.886353	-452.120636	317.834961	656.972595	-444.155212	241.566055	618.542542	-430.842896	347.148682	611.113098	-414.526459	133.314209	562.797119	-413.498901	155.593506	543.744446	-334.956940	80.506630	583.554077	-369.536865	199.166046	331.275696	-372.308075	130.291550	412.231384	-438.841217	-223.349945	893.476135	-250.338745	-12.428061	85.100822	-455.809875	-21.507820	80.839844	-55.677155	
753	3.7650	703.993530	1272.828857	-27.754309	751.322571	1259.941162	-411.343903	725.230896	1382.755737	-216.246231	706.856628	1212.129272	-215.742249	526.047180	1038.988037	53.323132	692.814270	891.300659	-43.132309	565.506653	1067.345093	-544.005981	703.499146	891.331482	-458.673004	187.367935	1204.474243	-234.865479	355.258484	1206.270874	-410.001740	341.624298	1190.030029	-77.988594	351.486053	1150.519287	-385.917145	369.758270	1143.800415	-110.826889	221.821533	1238.302856	-185.113358	217.095459	1246.640869	-290.095337	287.588318	1075.806396	-57.776089	292.899872	1070.344238	-434.075958	356.532928	959.275085	-44.803787	404.567688	891.824585	-50.874767	451.794128	815.570068	-64.711189	451.249756	921.726624	-63.644585	488.265717	708.207092	-88.861572	430.786652	602.006775	-56.377464	398.937225	523.446533	-62.395805	357.576111	445.473511	-74.731567	440.778351	507.408508	-103.122627	286.902832	339.614655	-94.253197	334.563782	348.143463	-172.634872	236.227432	324.089294	-149.146118	489.636230	227.800339	-129.755737	379.809998	227.410614	-61.973419	353.444733	963.626648	-446.929962	416.695221	911.995361	-448.011627	455.141602	944.759888	-433.666748	478.586395	843.754089	-436.806396	508.326050	732.285889	-423.806519	399.504700	706.494629	-453.504791	324.707825	664.529846	-445.199463	247.904510	626.763245	-430.952759	353.746796	617.992859	-415.870483	139.600327	571.427185	-413.711121	163.058044	552.749634	-334.088409	87.029961	592.037537	-369.211700	204.674103	339.793152	-372.277679	136.052505	420.999542	-438.801544	-223.383774	893.438293	-250.510239	-12.444871	85.055290	-455.833008	-21.519884	80.846977	-55.705856	
754	3.7700	704.388367	1273.235962	-30.042667	750.100525	1261.875610	-413.341919	724.197510	1384.129639	-217.908142	706.921936	1213.627441	-217.742050	526.587463	1039.897217	52.817959	692.860291	891.404541	-42.990559	565.494202	1067.184570	-544.811279	703.511414	891.337158	-459.080933	187.024948	1202.411621	-233.279022	353.621857	1206.228638	-409.310364	342.273621	1188.200317	-76.980881	350.721466	1150.530151	-385.151337	370.061066	1141.684082	-110.089745	221.717407	1236.139771	-183.462463	216.266144	1244.991577	-288.123505	286.962128	1073.153809	-57.580231	293.314453	1070.911987	-433.964844	354.111694	955.349792	-44.660332	400.715851	886.855957	-50.875706	446.220245	809.736389	-64.963432	447.985962	915.773560	-63.524319	480.891113	701.268860	-88.950211	423.871063	594.534424	-56.330917	393.031708	515.624268	-62.550205	352.456970	437.263641	-74.867844	434.527527	500.159119	-103.912567	282.199432	331.823334	-94.743362	330.068420	340.241272	-172.686951	231.997055	317.480133	-149.371246	484.096039	217.646515	-130.074860	374.110443	218.675369	-62.348972	356.484955	966.498535	-447.279053	420.343231	915.766052	-449.377045	459.674408	950.657104	-433.502686	485.151184	849.685242	-438.467529	515.644287	738.454529	-426.299713	406.656860	713.307251	-455.003357	331.700073	671.872498	-446.291626	254.778992	634.462830	-431.389374	360.692719	625.014954	-417.228058	146.274246	579.752014	-413.938385	169.274475	560.627014	-334.906219	93.962952	600.619812	-369.240234	210.725540	348.064240	-372.153564	142.405045	429.516937	-438.798737	-223.424011	893.401794	-250.656143	-12.445031	84.987442	-455.870514	-21.504929	80.824417	-55.732292	
755	3.7750	704.699036	1273.805542	-31.827715	748.852356	1263.841187	-415.406860	723.169983	1385.552002	-219.734711	706.963379	1215.145386	-219.892471	527.293518	1040.925659	52.294937	692.911804	891.518372	-42.788902	565.306152	1067.083130	-545.877563	703.509094	891.397278	-459.477905	186.728531	1200.614746	-231.493866	351.857941	1206.260864	-408.639160	343.008820	1186.263306	-76.155052	349.921936	1150.652222	-384.511749	370.466187	1139.711182	-109.231323	221.709152	1234.131836	-181.656006	215.770630	1243.479492	-285.778015	286.488708	1070.468750	-57.376141	293.572266	1071.512207	-433.788940	351.584808	951.692749	-44.440826	396.754333	882.230530	-50.838997	440.532471	804.136292	-65.002113	444.584717	910.093384	-63.495502	473.095337	694.370911	-88.421768	416.607941	587.346008	-56.217670	386.577057	508.085114	-62.679874	346.828857	429.367432	-74.985359	427.882233	493.155823	-104.015533	277.285004	324.600555	-95.029289	325.205566	332.813049	-172.626801	227.329102	311.229431	-149.453247	477.772552	207.905029	-129.567078	367.937347	210.299988	-62.545082	359.307770	969.759949	-447.703674	423.809143	919.728455	-450.753265	463.017670	956.236572	-434.420441	490.827789	855.999329	-440.327026	522.831665	744.933838	-428.750519	414.014954	720.244141	-456.436615	338.773529	679.150024	-447.366516	262.208527	641.889099	-432.149109	367.978790	632.001587	-418.363983	153.307663	587.749146	-414.175446	176.602066	568.659424	-335.183838	101.245216	608.923462	-369.363098	217.529587	356.058624	-372.154114	149.231873	437.664337	-438.767303	-223.457718	893.368286	-250.761215	-12.436689	85.019806	-455.836060	-21.523346	80.802719	-55.761288	
